<?xml version="1.0" encoding="UTF-8" standalone="no"?>
<svg
   viewBox="0 0 839.4649 515.55176"
   version="1.1"
   id="svg14"
   sodipodi:docname="HTML5_CSS3_logo.svg"
   width="839.4649"
   height="515.55176"
   inkscape:version="1.1.2 (0a00cf5339, 2022-02-04)"
   xmlns:inkscape="http://www.inkscape.org/namespaces/inkscape"
   xmlns:sodipodi="http://sodipodi.sourceforge.net/DTD/sodipodi-0.dtd"
   xmlns="http://www.w3.org/2000/svg"
   xmlns:svg="http://www.w3.org/2000/svg"
   xmlns:rdf="http://www.w3.org/1999/02/22-rdf-syntax-ns#"
   xmlns:cc="http://creativecommons.org/ns#"
   xmlns:dc="http://purl.org/dc/elements/1.1/">
  <defs
     id="defs18" />
  <sodipodi:namedview
     id="namedview16"
     pagecolor="#ffffff"
     bordercolor="#666666"
     borderopacity="1.0"
     inkscape:pageshadow="2"
     inkscape:pageopacity="0.0"
     inkscape:pagecheckerboard="0"
     showgrid="false"
     fit-margin-top="0"
     fit-margin-left="0"
     fit-margin-right="0"
     fit-margin-bottom="0"
     inkscape:zoom="0.43505859"
     inkscape:cx="-158.59933"
     inkscape:cy="60.911336"
     inkscape:window-width="1883"
     inkscape:window-height="1054"
     inkscape:window-x="37"
     inkscape:window-y="0"
     inkscape:window-maximized="1"
     inkscape:current-layer="svg14" />
  <title
     id="title2">HTML5 Logo</title>
  <path
     d="m 33.8,1.0079397 h 23 V 23.80794 H 78 V 1.0079397 h 23 V 70.00794 H 78 v -23 H 57 v 23 H 33.8 m 97.6,-46 H 111.1 V 1.0079397 h 63.7 V 24.00794 h -20.4 v 46 h -23 M 184.9,1.0079397 H 209 L 223.8,25.30794 238.6,1.0079397 h 24.1 V 70.00794 h -23 v -34.2 l -16.1,24.8 -16.1,-24.8 v 34.2 H 184.9 M 274.1,1.0079397 h 23 V 47.20794 h 32.6 v 22.8 h -55.6"
     id="path4" />
  <path
     fill="#e44d26"
     d="m 33,472.00794 -33,-370.4 h 362.8 l -33,370.2 -148.7,41.2"
     id="path6" />
  <path
     fill="#f16529"
     d="m 181.4,481.50794 v -349.5 h 148.3 l -28.3,316"
     id="path8" />
  <path
     fill="#ebebeb"
     d="m 67.4,177.30794 h 114 v 45.4 h -64.2 l 4.2,46.5 h 60 v 45.3 H 79.8 m 2,22.8 h 45.6 l 3.2,36.3 50.8,13.6 v 47.4 l -93.2,-26"
     id="path10" />
  <path
     fill="#ffffff"
     d="M 295,177.30794 H 181.2 v 45.4 h 109.6 m -4.1,46.5 H 181.2 v 45.4 h 56 l -5.3,59 -50.7,13.6 v 47.2 l 93,-25.8"
     id="path12" />
  <metadata
     id="metadata835">
    <rdf:RDF>
      <cc:Work
         rdf:about="">
        <dc:title>HTML5 Logo</dc:title>
      </cc:Work>
    </rdf:RDF>
  </metadata>
  <g
     id="g3013"
     transform="matrix(1.006937,0,0,1.006937,399.06387,0)">
    <polygon
       id="polygon2989"
       points="437.367,100.62 404.321,470.819 255.778,512 107.644,470.877 74.633,100.62 "
       style="fill:#264de4" />
    <polygon
       id="polygon2991"
       points="404.27,130.894 256,130.894 256,480.523 376.03,447.246 "
       style="fill:#2965f1" />
    <polygon
       id="polygon2993"
       points="154.38,313.627 256,313.627 256,268.217 150.31,268.217 "
       style="fill:#ebebeb" />
    <polygon
       id="polygon2995"
       points="256,176.305 255.843,176.305 142.132,176.305 146.26,221.716 256,221.716 "
       style="fill:#ebebeb" />
    <polygon
       id="polygon2997"
       points="162.771,407.634 255.791,433.457 256,433.399 256,386.153 255.801,386.206 205.227,372.55 201.994,336.333 177.419,336.333 156.409,336.333 "
       style="fill:#ebebeb" />
    <path
       id="path2999"
       d="m 160,0 h 55 v 23 h -32 v 23 h 32 v 23 h -55 z"
       inkscape:connector-curvature="0" />
    <path
       id="path3001"
       d="m 226,0 h 55 v 20 h -32 v 4 h 32 V 70 H 226 V 49 h 32 v -4 h -32 z"
       inkscape:connector-curvature="0" />
    <path
       id="path3003"
       d="m 292,0 h 55 v 20 h -32 v 4 h 32 V 70 H 292 V 49 h 32 v -4 h -32 z"
       inkscape:connector-curvature="0" />
    <polygon
       id="polygon3005"
       points="255.843,221.716 319.831,221.716 315.699,268.217 255.843,268.217 255.843,313.627 311.761,313.627 306.49,372.521 255.843,386.191 255.843,433.435 348.937,407.634 349.62,399.962 360.291,280.411 361.399,268.217 369.597,176.305 255.843,176.305 "
       style="fill:#ffffff" />
  </g>
</svg>
