P1
# CREATOR: GIMP PNM Filter Version 1.1
128 128
0000000000000000000000000000000000000000000000000000000000000000000000
0000000000000000000000000000000000000000000000000000000000000000000000
0000000000000000000000000000000000000000000000000000000000000000000000
0000000000000000000000000000000000000000000000000000000000000000000000
0000000000000000000000000000000000000000000000000000000000000000000000
0000000000000000000000000000000000000000000000000000000000000000000000
0000000000000000000000000000000000000000000000000000000000000000000000
0000000000000000000000000000000000000000000000000000000000000000000000
0000000000000000000000000000000000000000000000000000000000000000000000
0000000000000000000000000000000000000000000000000000000000000000000000
0000000000000000000000000000000000000000000000000000000000000000000000
0000000000000000000000000000000000000000000000000000000000000000000000
0000000000000000000000000000000000000000000000000000000000000000000000
0000000000000000000000000000000000000000000000000000000000000000000000
0000000000000000000000000000000000000000000000000000000000000000000000
0000000000000000000000000000000000000000000000000000000000000000000000
0000000000000000000000000000000000000000000000000000000000000000000000
0000000000000000000000000000000000000000000000000000000000000000000000
0000000000000000000000000000000000000000000000000000000000000000000000
0000000000000000000000000000000000000000000000000000000000000000000000
0000000000000000000000000000000000000000000000000000000000000000000000
0000000000000000000000000000000000000000000000000000000000000000000000
0000000000000000000000000000000000000000000000000000000000000000000000
0000000000000000000000000000000000000000000000000000000000000000000000
0000000000000000000000000000000000000000000000000000000000000000000000
0000000000000000000000000000000000000000000000000000000000000000000000
0000000000000000000000000000000000000000000000000000000000000000000000
0000100000000000000000000000000000000000000000000000000000000000000000
0000000000000000000000000000000000000000000000000000000000000111000000
0000000000000000000000000000000000000000000000000000000000000000000000
0000000000000000000000000000000000000000000000000111000000000000000000
0000000000000000000000000000000000000000000000000000000000000000000000
0000000000000000000000000000000000001111000000000000000000000000000000
0000000000000000000000000000000000000000000000000000000000000000000000
0000000000000000000000001111000000000000000000000000000000000000000000
0000000000000000000000000000000000000000000000000000000000000000000000
0000000000011111000000000000000000000000000000000000000000000000000000
0000000000000000000000000000000000000000000000000000000000000000000001
1111000000000000000000000000000000000000000000000000000000000000000000
0000000000000000000000000000000000000000000000000000000011011100000000
0000000000000000000000000000000000000000000000000000000000000000000000
0000000000000000000000000000000000000000000011111100000000000000000000
0000000000000000000000000000000000000000000000000000000000000000000000
0000000000000000000000000000000111111110000000000000000000000000000000
0000000000000000000001000000000000000000000000000000000000000000000000
0000000000000000001111101110000000000000000000000000000000000000000000
0000000001000000000000000000000000000000000000000000000000000000000000
0000011111111110000000000000000000000000000000000000000000000000000110
0000000000000000000000000000000000000000000000000000000000000011111011
1110000000000000000000000000000000000000000000000000000111000000000000
0000000000000000000000000000000000000000000000000111111111111000000000
0000000000000000000000000000000000000000000111100000000000000000000000
0000000000000000000000000000000000001111111111111000000000000000000000
0000000000000000000000000000000111100000000000000000000000000000000000
0000000000000000000000111111110111111000000000000000000000000000000000
0000000000000000000111110000000000000000000000000000000000000000000000
0000000001111111111111111000000000000000000000000000000000000000000000
0000000111111000000000000000000000000000000000000000000000000000001111
1111011111111000000000000000000000000000000000000000000000000000011111
1100000000000000000000000000000000000000000000000000111111111111111111
1000000000000000000000000000000000000000000000000000011111111000000000
0000000000000000000000000000000000000011111101111111111111100000000000
0000000000000000000000000000000000000000011111111110000000000000000000
0000000000000000000000001111111111111111111111100000000000000000000000
0000000000000000000000000000011111111111000000000000000000000000000000
0000000001111111111111111111111111100000000000000000000000000000000000
0000000000000000011111111111110000000000000000000000000000000000111111
1101101111111111111111100000000000000000000000000000000000000000000000
0000011111110110111100000000000000000000000000000011110110111111111111
1111111111100000000000000000000000000000000000000000000000000001111111
1111010111100000000000000000000000000001011101111111111111111111111110
0000000000000000000000000000000000000000000000000001111111101111010101
1111010000000000000000010000101110110111111111111111111110000000000000
0000000000000000000000000000000000000001111111111101010101001000000000
0000000000000000011011111111111111111111111110000000000000000000000000
0000000000000000000000000001111110000010110101010010000000000000000001
0010001101011011111111111111111110000000000000000000000000000000000000
0000000000000001111000000000001010010000000000000000000000000010111111
0111111111111111111110000000000000000000000000000000000000000000000000
0001110000000000000101000101000000000000000000010000101011110111111111
1111111110000000000000000000000000000000000111110000000000000110000000
0000000101101000000000000000010100000100110110111111111111111111111000
0000000000000000000000000000011111111110000000000100000000000000001010
0101000000000000010111000000010111011011111111111111110000000000000000
0000000000000001111111111111100000000100000000000000000100000000000000
0000010111100101011011111111111111111111111000000000000000000000000000
0011110000011111110000000010000000000100000110101010000000000001111110
0000001101011011111111111111110000000000000000000000000000001110000000
0111111100001000000000000110100010000000000000000011111110010101101110
1111111111111111110000000000000000000000000000011110000000011111110000
1001000000000111000010010101000000000111111111000010110111110111111111
1111110000000000000000000000000000011100000000011111111000100000000001
1111010100000000010011111111111110010001101101011111111111111111000000
0000000000000000000000111110100100001111111100101010001011111110001100
1010000001111111111111000010110111111111111111111111000000000000000000
0000000000111100000001010111111111100000001111111100010100000100100111
1111111110010011011010110111111111111111000000000000000000000000000011
1110101000011111111111110010100111111110010100100100000111111111111000
0010101110111111111111111110000000000000000000000000000011111100001010
1011111111110000000111111000101010000001000011111111110000011101101111
0111111111111110000000000000000000000000000011111110100101111111111111
1001010001010000111010001001010001111111100100010110111011111111111111
1110000000000000000000000000000011111111011101011111111111110000010000
0011101011000000001000010100000001110101101111011111111111111000000000
0000000000000000000011111011110111111111111111111100000000111111010110
0001000101000010000010101110111011111111111111111000000000000000000000
0000000001111110101101011111111111111111110111110100101011100000000001
0000000111101011101111111111111111110000000000000000000000000000000111
1111111011111111111111111111111111110110101010110000000000000001101011
1010110110111111111111110000000000000000000000000000000111111101111011
1111111111111101101100101010101011011110000000001111111010111111111111
1111111111110000000000000000000000000000000011111111011111111111111110
1101101011010101010101101111111111111010101101010101101111111111111110
0000000000000000000000000000000011111111111111111111111111111010101010
1010101010101011110101011101010111011111011111111111111110000000000000
0000000000000000000001111111111111111111111111011111101010100101010101
0101010111010101110101101011111111111111111110000000000000000000000000
0000000001111111111111111111111111111010110101011010101011010101100101
0110101110111111011111111111111100000000000000000000000000000000000011
1111111111111111111111111111011011010101010101011010111011010110101110
1011111111111111111100000000000000000000000000000000000011111111111111
1111111111111111111101101110111011010101010101101101110111111110111111
1111111100000000000000000000000000000000000001111111111111111111111111
1111101111110110101101011011010110110110111101101111111111111111100000
0000000000000000000000000000000000111111111111111111111111101111101011
1011101011101101110101101101101111111111111111111111100000000000000000
0000000000000000000000011111111111111111111111111111111101111011101011
0101011101101111101111111111111111111111000000000000000000000000000000
0000000000001111111111111111111111111111111111011110111101111011011101
1010111011111111111111111111000000000000000000000000000000000000000000
0011111111111111111111111110111011110111010111011011101111111111111111
1111111111111110000000000000000000000000000000000000000000000111111111
1111111111111111111111011101111101111110111010110101111111111111111111
1100000000000000000000000000000000000000000000000001111111111111111111
1111111111111111101111010111011111111111111001111111111111110000000000
0000000000000000000000000000000000000000000010011111111111111111111111
1110111011111101111111111111110000111111111111100000000000000000000000
0000000000000000000000000000000000001111111111111111111110111111111011
1111111111111111111110001111111111000000000000000000000000000000000000
0000000000000000000000000011111111111111111111111111111111111111111111
1111111001000111111111000000000000000000000000000000000000000000000000
0000000000000001111111111111111111111111111111111111111111111111111110
0001111110000000000000000000000000000000000000000000000000000000000000
0000011111111111111111111111111111111111111111111111111101100001110000
0000000000000000000000000000000000000000000000000000000000000000011111
1111111111111111111111111111111111111111111111101000010000000000000000
0000000000000000000000000000000000000000000000000010000111111111111111
1111111111111111111111111111111111110100010000000000000000000000000000
0000000000000000000000000000000000000000010011111111111111110111111111
1111111111111111111111111110000110000000000000000000000000000000000000
0000000000000000000000010001000000111111111101111110111111111111111111
1111111111111011000001000000000000000000000000000000000000000000000000
0000000000000000000100000111111111110111101111111111111111111111111111
0111110000100000000000000000000000000000000000000000000000000000000000
0001001001010010111111111111111011111111111111111111111100001110100000
1000000000000000000000000000000000000000000000000000000000000000000000
1010101111111110111111111111111111111111111001000111111000000000000000
0000000000000000000000000000000000000000000000000000010010001010101011
1111111110111111111111111111000100000001110100010000000000000000000000
0000000000000000000000000000000000000000000001000010101101011111111111
1111111111111101010001000000111110010000000000000000000000000000000000
0000000000000000000000000100000000001000101011010110111111111111111010
0010000100000000011111000000000000000000000000000000000000000000000000
0000000000000000000000000000001000101010100101010101001010100010000010
0000000101000000000000000000000000000000000000000000000000000000000000
0000010001000100000010100101010101010100100100001000000000000000001101
0000000000000000000000000000000000000000000000000000000000000000000000
0001000000000000000000000010000000000000000000000000000100100000000000
0000000000000000000000000000000000000000000000000000000000000000000000
0001001001000000010001000000000000000000000001010100000000000000000000
0000000000000000000000000000000000000000000000000000000001000000000000
0000000000000000000000000000000000000100000000000000000000000000000000
0000000000000000000000000000000000000000010000000000000001000000000000
0000000000000000000000000010000000000000000000000000000000000000000000
0000000000000000000000000000000000000000000000000000000000000000000000
0000000000000010100000000000000000000000000000000000000000000000000000
0000000000000000000000000000000000000000000000000000000000000000000000
0000010001111000000000000000000000000000000000000000000000000000000000
0000000000000000000000000000000000000000000000000000000000000000101111
1110000000000000000000000000000000000000000000000000000000000000000000
0000000000000000000000000000000000000000000000000000011111111100000000
0000000000000000000000000000000000000000000000000000000000000000000000
0000000000000000000000000000000000000000011111111110000000000000000000
0000000000000000000000000000000000000000000000000000000000000000000000
0000000000000000000000000000011111111110000000000000000000000000000000
0000000000000000000000000000000000000000000000000000000000000000000000
0000000000000000011111111111000000000000000000000000000000000000000000
0000000000000000000000000000000000000000000000000000000000000000000000
0000011111111111000000000000000000000000000000000000000000000000000000
0000000000000000000000000000000000000000000000000000000000000001111111
1111000000000000000000000000000000000000000000000000000000000000000000
0000000000000000000000000000000000000000000000000001111111111110000000
0000000000000000000000000000000000000000000000000000000000000000000000
0000000000000000000000000000000000000000111111111110000000000000000000
0000000000000000000000000000000000000000000000000000000000000000000000
0000000000000000000000000000111111111110000000000000000000000000000000
0000000000000000000000000000000000000000000000000000000000000000000000
0000000000000000011111111110000000000000000000000000000000000000000000
0000000000000000000000000000000000000000000000000000000000000000000000
0000011111111110000000000000000000000000000000000000000000000000000000
0000000000000000000000000000000000000000000000000000000000000000111111
1110000000000000000000000000000000000000000000000000000000000000000000
0000000000000000000000000000000000000000000000000000011111111100000000
0000000000000000000000000000000000000000000000000000000000000000000000
0000000000000000000000000000000000000000001111111100000000000000000000
0000000000000000000000000000000000000000000000000000000000000000000000
0000000000000000000000000000000011111100000000000000000000000000000000
0000000000000000000000000000000000000000000000000000000000000000000000
0000000000000000000001111100000000000000000000000000000000000000000000
0000000000000000000000000000000000000000000000000000000000000000000000
0000000000111110000000000000000000000000000000000000000000000000000000
0000000000000000000000000000000000000000000000000000000000000000000000
1110000000000000000000000000000000000000000000000000000000000000000000
0000000000000000000000000000000000000000000000000000000000001000000000
0000000000000000000000000000000000000000000000000000000000000000000000
0000000000000000000000000000000000000000000000000000000000000000000000
0000000000000000000000000000000000000000000000000000000000000000000000
0000000000000000000000000000000000000000000000000000000000000000000000
0000000000000000000000000000000000000000000000000000000000000000000000
0000000000000000000000000000000000000000000000000000000000000000000000
0000000000000000000000000000000000000000000000000000000000000000000000
0000000000000000000000000000000000000000000000000000000000000000000000
0000000000000000000000000000000000000000000000000000000000000000000000
0000000000000000000000000000000000000000000000000000000000000000000000
0000000000000000000000000000000000000000000000000000000000000000000000
0000000000000000000000000000000000000000000000000000000000000000000000
0000000000000000000000000000000000000000000000000000000000000000000000
0000000000000000000000000000000000000000000000000000000000000000000000
0000000000000000000000000000000000000000000000000000000000000000000000
0000000000000000000000000000000000000000000000000000000000000000000000
0000000000000000000000000000000000000000000000000000000000000000000000
0000000000000000000000000000000000000000000000000000000000000000000000
0000000000000000000000000000000000000000000000000000000000000000000000
0000000000000000000000000000000000000000000000000000000000000000000000
0000