P2
# Avec des niveaux de gris
18 7
15
0  0  0  0  0  0  0  0  0  0  0  0  0  0  0  0  0 0
0  3  3  3  3  0  0  7  0  0  7  0  0 11 11 11  0 0
0  3  0  0  0  0  0  7  7  0  7  0  0  0 11  0  0 0
0  3  3  3  3  0  0  7  0  7  7  0  0  0 11  0  0 0
0  0  0  0  3  0  0  7  0  0  7  0  0  0 11  0  0 0
0  3  3  3  3 15  0  7  0  0  7 15  0  0 11  0 15 0
0  0  0  0  0  0  0  0  0  0  0  0  0  0  0  0  0 0
